<svg width="300" height="260" viewBox="0 0 300 260" xmlns="http://www.w3.org/2000/svg"><title>computer_icon</title><g fill="#FFF" fill-rule="evenodd"><path d="M166.814 160.702h21.484c2.103 4.12 4.02 7.893 5.952 11.66 1.362 2.656-.006 4.092-2.44 4.134-9.47.16-18.949.184-28.42.01-3.174-.058-3.816-1.988-2.265-4.745 1.874-3.332 3.513-6.798 5.689-11.06m49.012-25.261c.02 3.167-1.207 4.378-4.605 4.365a8990.96 8990.96 0 0 0-67.338 0c-3.397.013-4.625-1.198-4.604-4.366.094-14.992.102-29.985-.004-44.977-.024-3.405 1.357-4.58 4.932-4.556 8.935.06 21.651.096 33.345.119a8033.71 8033.71 0 0 0 33.345-.119c3.576-.024 4.957 1.151 4.933 4.556a3386.379 3386.379 0 0 0-.004 44.977m6.524-49.868c-.006-5.608-.523-6.048-6.73-6.062-12.69-.026-25.378-.049-38.068-.073-12.689.024-25.377.047-38.066.073-6.208.014-6.724.454-6.731 6.062-.018 21.251.044 42.504-.059 63.754-.018 3.8.71 5.89 5.554 5.855 13.101-.095 26.202-.133 39.302-.136 13.101.003 26.202.04 39.303.136 4.844.036 5.572-2.056 5.554-5.855-.103-21.25-.041-42.503-.06-63.754M112.697 97.264H88.822a3.128 3.128 0 0 1-3.122-3.133A3.127 3.127 0 0 1 88.822 91h23.875a3.127 3.127 0 0 1 3.122 3.132 3.128 3.128 0 0 1-3.122 3.133m0 13.312H88.822a3.128 3.128 0 0 1-3.122-3.133 3.128 3.128 0 0 1 3.122-3.132h5.757a289.29 289.29 0 0 1 12.448 0h5.67a3.128 3.128 0 0 1 3.122 3.132 3.128 3.128 0 0 1-3.122 3.133m-6.234 46.017c-.54 3.325-2.71 5.126-6 5.136-3.057.01-5.493-3.108-5.266-6.304.239-3.346 2.856-5.537 6.222-5.213 3.227.311 5.568 3.152 5.044 6.38m17.412-63.327c-.076-8.536-4.893-13.505-13.273-13.708a393.504 393.504 0 0 0-19.738.007C83.222 79.76 77.79 84.92 77.73 92.66c-.184 23.616-.185 47.238.002 70.854.063 7.907 5.71 13.035 13.548 13.11 5.848.057 11.697.016 17.546.013 10.042-.005 14.862-4.72 14.906-14.724.05-11.294.012-22.59.012-33.886h.159c0-11.587.077-23.176-.027-34.762"/><path d="M80.378 249.964h139.244L289.244 130 219.622 10.036H80.378L10.756 130l69.622 119.964zm142.08 9.774H77.542a4.917 4.917 0 0 1-4.254-2.443L.829 132.444a4.865 4.865 0 0 1 0-4.887L73.288 2.706A4.917 4.917 0 0 1 77.542.262h144.916a4.92 4.92 0 0 1 4.255 2.444l72.458 124.85a4.865 4.865 0 0 1 0 4.888l-72.458 124.85a4.917 4.917 0 0 1-4.255 2.444z"/></g></svg>