<svg width="300" height="260" viewBox="0 0 300 260" xmlns="http://www.w3.org/2000/svg"><title>datenrettung_icon</title><g fill="#57B8BA" fill-rule="evenodd"><path d="M186.018 174.877c.084 5.937-2.116 8.2-7.671 8.15-9.014-.092-18.03-.13-27.045-.137a7.974 7.974 0 0 1-2.453.024c-.036-.007-.072-.02-.107-.026-9.248.002-18.496.046-27.744.14-5.538.057-7.943-2.34-7.933-8.11.009-5.744.002-11.486.006-17.23 0-.03-.006-.055-.006-.086.04-20.871.034-41.744.029-62.614 0-3.62.004-7.243.004-10.864-.002-5.377 2.317-7.92 7.512-7.892 19.344.1 38.687.09 58.031-.003 5.159-.025 7.41 2.28 7.356 7.856-.008.744-.002 1.487-.008 2.232 0 .045.008.083.008.13-.034 2.812-.025 5.622-.038 8.435-.013 3.76-.04 7.523-.039 11.286.01 5.377.026 10.75.026 16.126 0 .875-.003 1.752-.004 2.626.001 1.643.006 3.282.006 4.923 0 5.807-.018 11.613-.032 17.42.014 3.437.041 6.873.102 10.308.01.631-.029 1.2-.103 1.726.009 5.195.031 10.387.103 15.58m8.3-92.408c-.075-8.682-4.776-12.597-15.057-12.642-19.606-.09-39.215-.095-58.82.006-10.166.051-14.696 3.713-14.73 12.166a12528.94 12528.94 0 0 0-.021 95.765c.032 8.722 4.644 12.365 15.217 12.419 18.694.095 37.387.053 56.08.027 13.02-.018 17.335-3.546 17.37-14.259.052-15.199.014-30.4.007-45.598-.007-15.962.091-31.925-.046-47.884"/><path d="M150 97.285c-13.247 0-24.024 10.72-24.024 23.9 0 13.178 10.777 23.899 24.024 23.899 13.247 0 24.023-10.721 24.023-23.9 0-13.179-10.776-23.899-24.023-23.899m0 55.058c-17.27 0-31.321-13.978-31.321-31.159 0-17.18 14.051-31.158 31.32-31.158 17.27 0 31.321 13.978 31.321 31.158s-14.05 31.159-31.32 31.159"/><path d="M135.887 151.364c-.88.876-2.498.688-3.613-.422-1.114-1.107-1.303-2.716-.422-3.592l12.286-12.223c.883-.877 2.5-.69 3.613.418 1.116 1.11 1.305 2.719.423 3.596l-12.287 12.223zm8.274-30.059c0 3.135 2.555 5.676 5.707 5.676 3.152 0 5.706-2.54 5.706-5.676 0-3.135-2.554-5.677-5.706-5.677-3.152 0-5.707 2.542-5.707 5.677m-25.858 55.727c0 2.21 1.803 4.004 4.025 4.004 2.221 0 4.024-1.794 4.024-4.004 0-2.21-1.803-4.003-4.024-4.003-2.222 0-4.025 1.793-4.025 4.003m55.344 0c0 2.21 1.803 4.004 4.025 4.004 2.22 0 4.024-1.794 4.024-4.004 0-2.21-1.803-4.003-4.024-4.003-2.222 0-4.025 1.793-4.025 4.003m-55.476-92.3c0 2.21 1.803 4.004 4.025 4.004 2.221 0 4.024-1.794 4.024-4.004 0-2.21-1.803-4.003-4.024-4.003-2.222 0-4.025 1.793-4.025 4.003m55.344 0c0 2.21 1.803 4.004 4.025 4.004 2.222 0 4.024-1.794 4.024-4.004 0-2.21-1.802-4.003-4.024-4.003s-4.025 1.793-4.025 4.003"/><path d="M80.378 249.964h139.244L289.244 130 219.622 10.036H80.378L10.756 130l69.622 119.964zm142.08 9.774H77.542a4.917 4.917 0 0 1-4.254-2.443L.829 132.444a4.865 4.865 0 0 1 0-4.887L73.288 2.706A4.917 4.917 0 0 1 77.542.262h144.916a4.92 4.92 0 0 1 4.255 2.444l72.458 124.85a4.865 4.865 0 0 1 0 4.888l-72.458 124.85a4.917 4.917 0 0 1-4.255 2.444z"/></g></svg>