<svg width="300" height="260" viewBox="0 0 300 260" xmlns="http://www.w3.org/2000/svg"><title>diagnose_icon</title><g fill="#57B8BA" fill-rule="evenodd"><path d="M80.378 249.963h139.244L289.244 130 219.622 10.036H80.378L10.756 130l69.622 119.963zm142.08 9.775H77.542a4.917 4.917 0 0 1-4.254-2.444L.829 132.444a4.865 4.865 0 0 1 0-4.888L73.288 2.706A4.917 4.917 0 0 1 77.542.261h144.916c1.755 0 3.377.931 4.255 2.443l72.458 124.851a4.865 4.865 0 0 1 0 4.888l-72.458 124.85a4.917 4.917 0 0 1-4.255 2.444z"/><path d="M157.288 83.284c-18.671-.009-33.847 15.137-33.833 33.765.015 18.54 15.39 33.736 34.006 33.612 18.394-.125 33.597-15.244 33.667-33.478.07-18.36-15.433-33.89-33.84-33.899m3.416-11.29c15.037.668 29.13 8.977 37.246 25.745 7.836 16.187 6.177 32.204-4.7 46.5-11.035 14.503-26.206 20.235-44.224 16.764-5.559-1.07-9.073-.345-12.384 4.389-3.29 4.706-7.532 8.757-11.372 13.083-6.697 7.544-15.437 8.739-22.296 3.061-6.998-5.795-7.25-14.825-.517-22.778 4.19-4.946 8.365-9.92 12.858-14.587 2.414-2.507 2.843-4.404 1.229-7.71-14.528-29.729 7.344-64.38 44.16-64.467"/></g></svg>