<?xml version="1.0" encoding="UTF-8"?>
<svg width="137px" height="255px" viewBox="0 0 137 255" version="1.1" xmlns="http://www.w3.org/2000/svg" xmlns:xlink="http://www.w3.org/1999/xlink">
    <!-- Generator: Sketch 42 (36781) - http://www.bohemiancoding.com/sketch -->
    <title>nbg-computer_logo</title>
    <desc>Created with Sketch.</desc>
    <defs></defs>
    <g id="Page-1" stroke="none" stroke-width="1" fill="none" fill-rule="evenodd">
        <g id="nbg-computer_logo">
            <g id="NBG-Logo">
                <polygon id="Fill-1" fill="#233540" points="0.0269241379 11.0801035 0.0269241379 110.147347 19.3669517 110.293404 19.5145931 120.987613 0.0269241379 121.135323 0.0269241379 181.566212 136.952386 181.566212 136.952386 0.0584227723 20.6397793 0.0584227723 20.6884414 11.0896864"></polygon>
                <g id="Group-48" transform="translate(0.000000, 9.313119)">
                    <path d="M80.1382621,15.6566683 C80.1382621,23.9515124 73.4050207,30.674427 65.0953931,30.674427 C56.7860966,30.674427 50.0518621,23.9515124 50.0518621,15.6566683 C50.0518621,7.36314604 56.7860966,0.640231436 65.0953931,0.640231436 C73.4050207,0.640231436 80.1382621,7.36314604 80.1382621,15.6566683 Z" id="Fill-2" fill="#53B5AD"></path>
                    <path d="M125.805826,15.2577875 C125.805826,23.5526316 119.071923,30.2748853 110.762626,30.2748853 C102.452337,30.2748853 95.7194262,23.5526316 95.7194262,15.2577875 C95.7194262,6.96360433 102.452337,0.241350619 110.762626,0.241350619 C119.071923,0.241350619 125.805826,6.96360433 125.805826,15.2577875" id="Fill-4" fill="#53B5AD"></path>
                    <polygon id="Fill-6" fill="#53B5AD" points="6.01616552 22.8769035 38.8925241 22.8769035 38.8925241 7.78743812 6.01616552 7.78743812"></polygon>
                    <polygon id="Fill-8" fill="#53B5AD" points="5.84866207 46.4406448 38.7253517 46.4406448 38.7253517 31.3515099 5.84866207 31.3515099"></polygon>
                    <polygon id="Fill-9" fill="#53B5AD" points="35.3693241 19.2152364 51.9554759 19.2152364 51.9554759 11.5974752 35.3693241 11.5974752"></polygon>
                    <polygon id="Fill-10" fill="#53B5AD" points="38.266869 42.673896 94.0398897 42.673896 94.0398897 35.0561349 38.266869 35.0561349"></polygon>
                    <polygon id="Fill-11" fill="#53B5AD" points="107.990742 29.1261905 94.0743834 42.7203897 88.7371145 37.2762994 102.654466 23.6817697"></polygon>
                    <path d="M80.3102345,62.816799 C80.3102345,71.112304 73.5773241,77.8345577 65.2673655,77.8345577 C56.9570759,77.8345577 50.2244966,71.112304 50.2244966,62.816799 C50.2244966,54.5232767 56.9570759,47.801023 65.2673655,47.801023 C73.5773241,47.801023 80.3102345,54.5232767 80.3102345,62.816799" id="Fill-12" fill="#53B5AD"></path>
                    <path d="M125.976839,62.4179182 C125.976839,70.7134231 119.243597,77.4356769 110.93397,77.4356769 C102.624673,77.4356769 95.8911007,70.7134231 95.8911007,62.4179182 C95.8911007,54.1243959 102.624673,47.4018118 110.93397,47.4018118 C119.243597,47.4018118 125.976839,54.1243959 125.976839,62.4179182" id="Fill-13" fill="#53B5AD"></path>
                    <polygon id="Fill-14" fill="#53B5AD" points="6.18731034 70.0371002 39.064331 70.0371002 39.064331 54.9476349 6.18731034 54.9476349"></polygon>
                    <polygon id="Fill-15" fill="#53B5AD" points="6.0198069 93.601172 38.8964966 93.601172 38.8964966 78.5123676 6.0198069 78.5123676"></polygon>
                    <polygon id="Fill-16" fill="#53B5AD" points="35.5417931 66.3757636 52.1272828 66.3757636 52.1272828 58.757672 35.5417931 58.757672"></polygon>
                    <polygon id="Fill-17" fill="#53B5AD" points="38.4380138 89.8344233 94.2120276 89.8344233 94.2120276 82.2166621 38.4380138 82.2166621"></polygon>
                    <polygon id="Fill-18" fill="#53B5AD" points="108.163046 76.2863212 94.2460248 89.8808509 88.9084248 84.4364301 102.825446 70.8422308"></polygon>
                    <path d="M61.5094952,114.978124 C61.5094952,123.272968 54.7759228,129.996213 46.4662952,129.996213 C38.1566676,129.996213 31.4227641,123.272968 31.4227641,114.978124 C31.4227641,106.683941 38.1566676,99.961687 46.4662952,99.961687 C54.7759228,99.961687 61.5094952,106.683941 61.5094952,114.978124" id="Fill-19" fill="#53B5AD"></path>
                    <polygon id="Fill-20" fill="#53B5AD" points="63.2040276 172.25316 70.8353655 172.25316 70.8353655 131.697578 63.2040276 131.697578"></polygon>
                    <polygon id="Fill-21" fill="#53B5AD" points="57.2629186 117.770785 70.8813462 131.663377 65.4272221 136.99115 51.8087945 123.098889"></polygon>
                    <path d="M125.722406,115.276318 C125.722406,123.571162 118.988833,130.293746 110.679206,130.293746 C102.369909,130.293746 95.6366676,123.571162 95.6366676,115.276318 C95.6366676,106.982796 102.369909,100.259881 110.679206,100.259881 C118.988833,100.259881 125.722406,106.982796 125.722406,115.276318" id="Fill-22" fill="#53B5AD"></path>
                    <polygon id="Fill-23" fill="#53B5AD" points="85.4743724 172.25316 93.1057103 172.25316 93.1057103 133.22688 85.4743724 133.22688"></polygon>
                    <polygon id="Fill-24" fill="#53B5AD" points="99.0463228 119.301178 85.4275641 133.1941 90.8816883 138.521212 104.500778 124.628951"></polygon>
                    <path d="M32.5122979,145.987894 C32.5122979,152.513532 27.2150841,157.803305 20.6771531,157.803305 C14.1395531,157.803305 8.84167724,152.513532 8.84167724,145.987894 C8.84167724,139.462916 14.1395531,134.173805 20.6771531,134.173805 C27.2150841,134.173805 32.5122979,139.462916 32.5122979,145.987894" id="Fill-25" fill="#53B5AD"></path>
                    <polygon id="Fill-26" fill="#53B5AD" points="33.3281655 172.25316 40.9591724 172.25316 40.9591724 161.167703 33.3281655 161.167703"></polygon>
                    <polygon id="Fill-27" fill="#53B5AD" points="27.3405131 147.242563 40.9592717 161.135485 35.5051476 166.462597 21.886389 152.570336"></polygon>
                    <polygon id="Fill-28" fill="#53B5AD" points="8.89990621 191.824954 8.89990621 223.319388 0.026857931 223.319388 0.026857931 177.608195 11.6848993 177.608195 32.3454234 206.041712 32.3454234 177.608195 40.9592717 177.608195 40.9592717 223.319388 32.3454234 223.319388"></polygon>
                    <path d="M58.2692966,215.47699 L68.9987862,215.47699 C72.8944,215.47699 76.4073379,214.202462 76.4073379,209.483699 C76.4073379,204.830365 73.5332966,202.981522 69.1901241,202.981522 L58.2692966,202.981522 L58.2692966,215.47699 Z M58.2692966,196.160135 L68.4237793,196.160135 C72.0006069,196.160135 74.5552,194.566726 74.5552,190.740828 C74.5552,186.469489 71.233931,185.512849 67.6574345,185.512849 L58.2692966,185.512849 L58.2692966,196.160135 Z M48.241931,177.735813 L69.7012414,177.735813 C78.3872552,177.735813 84.2631172,180.540635 84.2631172,189.020198 C84.2631172,193.610087 82.1554207,196.54213 78.0678069,198.519186 C83.6877793,200.112594 86.4343724,204.384594 86.4343724,210.058344 C86.4343724,219.302228 78.5789241,223.254687 70.340469,223.254687 L48.241931,223.254687 L48.241931,177.735813 Z" id="Fill-29" fill="#53B5AD"></path>
                    <path d="M133.755156,211.77947 C129.85888,219.111065 121.939873,224.020164 113.06219,224.020164 C100.097556,224.020164 89.4958455,213.436984 89.4958455,200.431309 C89.4958455,187.489739 100.097556,176.90656 113.06219,176.90656 C121.875983,176.90656 129.603983,181.815989 133.691928,188.89215 C129.667542,190.932321 129.348425,191.123319 124.878135,193.355148 C122.51488,189.274806 118.172039,186.660321 113.06219,186.660321 C105.398411,186.660321 99.2673214,192.780833 99.2673214,200.431309 C99.2673214,208.14589 105.398411,214.202296 113.06219,214.202296 C118.172039,214.202296 123.280894,211.651587 125.133363,207.316472 L124.111128,207.316472 C122.067321,207.316472 117.405032,207.380248 114.85077,207.380248 C113.637197,207.380248 113.06219,207.380248 113.06219,207.316472 L113.06219,198.901015 C119.513059,198.901015 128.518521,198.965122 136.373639,198.965122 C136.373639,200.304087 136.11808,208.719544 133.755156,211.77947" id="Fill-30" fill="#53B5AD"></path>
                    <path d="M8.56691862,244.057952 C3.84868414,244.057952 0.0268910345,240.242958 0.0268910345,235.533448 C0.0268910345,230.870531 3.84868414,227.008284 8.56691862,227.008284 C11.7991393,227.008284 14.5354703,228.797977 15.9748083,231.364878 C14.5354703,232.118624 14.4176221,232.189009 12.813429,232.966217 C11.9874979,231.530101 10.3833048,230.540747 8.56691862,230.540747 C5.80642207,230.540747 3.56564966,232.800994 3.56564966,235.533448 C3.56564966,238.288703 5.80642207,240.52582 8.56691862,240.52582 C10.4544772,240.52582 12.1056772,239.513004 12.9547807,237.911665 C14.5593048,238.736127 14.6063117,238.830304 16.11616,239.513004 C14.6771531,242.221005 11.8931531,244.057952 8.56691862,244.057952" id="Fill-31" fill="#53B5AD"></path>
                    <path d="M20.7621628,235.533481 C20.7621628,238.335329 23.0979421,240.666953 25.9051145,240.666953 C28.712949,240.666953 31.0010593,238.335329 31.0010593,235.533481 C31.0010593,232.730642 28.712949,230.375557 25.9051145,230.375557 C23.0979421,230.375557 20.7621628,232.730642 20.7621628,235.533481 M25.9051145,244.223208 C21.0928662,244.223208 17.1999007,240.337168 17.1999007,235.533481 C17.1999007,230.706002 21.0928662,226.819963 25.9051145,226.819963 C30.6945214,226.819963 34.6341628,230.706002 34.6341628,235.533481 C34.6341628,240.337168 30.6945214,244.223208 25.9051145,244.223208" id="Fill-32" fill="#53B5AD"></path>
                    <polygon id="Fill-33" fill="#53B5AD" points="37.157109 227.196836 41.9693572 227.196836 45.8623228 234.614347 49.6834538 227.196836 54.5675366 227.196836 54.5675366 244.010897 51.0989572 244.010897 51.0989572 232.118822 51.0522814 232.118822 47.3013297 239.771941 44.4468193 239.771941 40.719371 232.236131 40.6717021 232.236131 40.6717021 244.010897 37.157109 244.010897"></polygon>
                    <path d="M61.8550621,235.109454 L64.7330759,235.109454 C66.4316138,235.109454 67.988469,234.732415 67.988469,232.589806 C67.988469,230.446537 66.4316138,230.069498 64.7330759,230.069498 L61.8550621,230.069498 L61.8550621,235.109454 Z M58.1514483,227.196935 L65.7480276,227.196935 C69.9703724,227.196935 71.5745655,229.857683 71.5745655,232.589806 C71.5745655,235.321269 69.9703724,237.982017 65.7480276,237.982017 L61.8550621,237.982017 L61.8550621,244.010665 L58.1514483,244.010665 L58.1514483,227.196935 Z" id="Fill-34" fill="#53B5AD"></path>
                    <path d="M88.1813738,237.652959 C88.1813738,242.197246 85.4917186,244.410901 80.9866703,244.410901 C76.43296,244.410901 73.8144772,242.24483 73.8144772,237.652959 L73.8144772,227.196671 L77.518091,227.196671 L77.518091,237.652959 C77.518091,239.489906 77.9898152,241.30273 80.9866703,241.30273 C83.6283255,241.30273 84.47776,240.172606 84.47776,237.652959 L84.47776,227.196671 L88.1813738,227.196671 L88.1813738,237.652959 Z" id="Fill-35" fill="#53B5AD"></path>
                    <polygon id="Fill-36" fill="#53B5AD" points="95.6348138 230.305073 90.279669 230.305073 90.279669 227.220033 104.646566 227.220033 104.646566 230.328204 99.3384276 230.328204 99.3384276 244.010963 95.6348138 244.010963"></polygon>
                    <polygon id="Fill-37" fill="#53B5AD" points="109.929743 237.299283 109.929743 240.878669 119.436723 240.878669 119.436723 243.987501 106.343647 243.987501 106.343647 227.125856 118.634957 227.125856 118.634957 230.234027 109.929743 230.234027 109.929743 234.02589 117.620006 234.02589 117.620006 237.299283"></polygon>
                    <path d="M125.781263,230.069498 L125.781263,235.132585 L128.659608,235.132585 C130.428988,235.132585 131.891829,234.732415 131.891829,232.589806 C131.891829,230.399283 130.428988,230.069498 128.659608,230.069498 L125.781263,230.069498 Z M131.655801,237.793663 L136.373705,244.034788 L131.844491,244.034788 L127.597981,237.982017 L125.781263,237.982017 L125.781263,244.034788 L122.053815,244.034788 L122.053815,227.196935 L129.650394,227.196935 C133.896905,227.196935 135.524601,229.857683 135.524601,232.589806 C135.524601,234.873846 134.321622,237.181678 131.514119,237.793663 L131.655801,237.793663 Z" id="Fill-38" fill="#53B5AD"></path>
                    <polygon id="Fill-39" fill="#53B5AD" points="32.3453241 179.042824 40.9591724 179.042824 40.9591724 161.167703 32.3453241 161.167703"></polygon>
                    <polygon id="Fill-40" fill="#53B5AD" points="22.2062345 154.523335 28.2966069 148.443137 40.9590069 161.08334 34.8683034 167.163538"></polygon>
                    <path d="M72.0686345,15.6566683 C72.0686345,19.5007413 68.9463172,22.6165124 65.0953931,22.6165124 C61.245131,22.6165124 58.1231448,19.5007413 58.1231448,15.6566683 C58.1231448,11.8139171 61.245131,8.69781559 65.0953931,8.69781559 C68.9463172,8.69781559 72.0686345,11.8139171 72.0686345,15.6566683" id="Fill-41" fill="#233540"></path>
                    <path d="M117.734577,15.2577875 C117.734577,19.1015301 114.612921,22.2176316 110.762328,22.2176316 C106.911404,22.2176316 103.789418,19.1015301 103.789418,15.2577875 C103.789418,11.4147058 106.911404,8.29860433 110.762328,8.29860433 C114.612921,8.29860433 117.734577,11.4147058 117.734577,15.2577875" id="Fill-42" fill="#233540"></path>
                    <path d="M72.2399779,62.816799 C72.2399779,66.6612025 69.1176607,69.777304 65.2673986,69.777304 C61.4164745,69.777304 58.2944883,66.6612025 58.2944883,62.816799 C58.2944883,58.9747087 61.4164745,55.8582767 65.2673986,55.8582767 C69.1176607,55.8582767 72.2399779,58.9747087 72.2399779,62.816799" id="Fill-43" fill="#233540"></path>
                    <path d="M117.906582,62.4179182 C117.906582,66.2619912 114.784927,69.3780927 110.934003,69.3780927 C107.08341,69.3780927 103.961423,66.2619912 103.961423,62.4179182 C103.961423,58.575167 107.08341,55.4590655 110.934003,55.4590655 C114.784927,55.4590655 117.906582,58.575167 117.906582,62.4179182" id="Fill-44" fill="#233540"></path>
                    <path d="M53.4385766,114.978124 C53.4385766,118.821536 50.3172524,121.937637 46.4663283,121.937637 C42.6154041,121.937637 39.493749,118.821536 39.493749,114.978124 C39.493749,111.135703 42.6154041,108.01861 46.4663283,108.01861 C50.3172524,108.01861 53.4385766,111.135703 53.4385766,114.978124" id="Fill-45" fill="#233540"></path>
                    <path d="M117.651818,115.276318 C117.651818,119.120391 114.529832,122.236492 110.679239,122.236492 C106.828646,122.236492 103.706659,119.120391 103.706659,115.276318 C103.706659,111.433567 106.828646,108.317465 110.679239,108.317465 C114.529832,108.317465 117.651818,111.433567 117.651818,115.276318" id="Fill-46" fill="#233540"></path>
                    <path d="M26.1631559,145.987894 C26.1631559,149.012131 23.70688,151.463376 20.6772524,151.463376 C17.6472938,151.463376 15.19168,149.012131 15.19168,145.987894 C15.19168,142.964317 17.6472938,140.513072 20.6772524,140.513072 C23.70688,140.513072 26.1631559,142.964317 26.1631559,145.987894" id="Fill-47" fill="#233540"></path>
                </g>
            </g>
        </g>
    </g>
</svg>