<svg width="137" height="255" viewBox="0 0 137 255" xmlns="http://www.w3.org/2000/svg"><title>nbg-computer_logo</title><g fill="none" fill-rule="evenodd"><path fill="#233540" d="M.027 11.08v99.067l19.34.146.148 10.695-19.488.147v60.431h136.925V.058H20.64l.048 11.032z"/><path d="M80.138 24.97c0 8.295-6.733 15.018-15.043 15.018-8.309 0-15.043-6.723-15.043-15.018 0-8.294 6.734-15.017 15.043-15.017 8.31 0 15.043 6.723 15.043 15.017zm45.668-.4c0 8.296-6.734 15.018-15.043 15.018-8.31 0-15.044-6.722-15.044-15.017 0-8.294 6.733-15.017 15.044-15.017 8.309 0 15.043 6.723 15.043 15.017M6.016 32.19h32.877V17.1H6.016zm-.167 23.564h32.876v-15.09H5.85z" fill="#53B5AD"/><path fill="#53B5AD" d="M35.37 28.528h16.585v-7.617H35.37zm2.897 23.459H94.04v-7.618H38.267z"/><path fill="#53B5AD" d="M107.99 38.44L94.075 52.033l-5.337-5.445 13.917-13.594zM80.31 72.13c0 8.295-6.733 15.018-15.043 15.018-8.31 0-15.043-6.723-15.043-15.018 0-8.294 6.733-15.016 15.043-15.016 8.31 0 15.043 6.722 15.043 15.016m45.667-.399c0 8.296-6.733 15.018-15.043 15.018-8.31 0-15.043-6.722-15.043-15.018 0-8.293 6.734-15.016 15.043-15.016 8.31 0 15.043 6.723 15.043 15.016M6.187 79.35h32.877V64.26H6.187zm-.167 23.564h32.876V87.825H6.02z"/><path fill="#53B5AD" d="M35.542 75.689h16.585V68.07H35.542zm2.896 23.459h55.774V91.53H38.438z"/><path fill="#53B5AD" d="M108.163 85.6L94.246 99.193l-5.338-5.444 13.917-13.595zM61.51 124.291c0 8.295-6.734 15.018-15.044 15.018s-15.043-6.723-15.043-15.018c0-8.294 6.734-15.016 15.043-15.016 8.31 0 15.043 6.722 15.043 15.016m1.695 57.275h7.631v-40.555h-7.631z"/><path fill="#53B5AD" d="M57.263 127.084l13.618 13.892-5.454 5.328-13.618-13.892zm68.459-2.494c0 8.294-6.733 15.017-15.043 15.017-8.31 0-15.042-6.723-15.042-15.018 0-8.293 6.733-15.016 15.042-15.016 8.31 0 15.043 6.723 15.043 15.016m-40.248 56.977h7.632V142.54h-7.632z"/><path fill="#53B5AD" d="M99.046 128.614l-13.618 13.893 5.454 5.327 13.619-13.892zm-66.534 26.687c0 6.526-5.297 11.815-11.835 11.815-6.537 0-11.835-5.29-11.835-11.815 0-6.525 5.298-11.814 11.835-11.814 6.538 0 11.835 5.289 11.835 11.814m.816 26.265h7.631v-11.085h-7.63z"/><path fill="#53B5AD" d="M27.34 156.556l13.62 13.893-5.455 5.327-13.619-13.893zM8.9 201.138v31.495H.027V186.92h11.658l20.66 28.434V186.92h8.614v45.712h-8.614zm49.37 23.652h10.729c3.895 0 7.408-1.274 7.408-5.993 0-4.654-2.874-6.502-7.217-6.502H58.27v12.495zm0-19.317h10.154c3.577 0 6.131-1.593 6.131-5.42 0-4.27-3.321-5.227-6.898-5.227H58.27v10.647zM48.241 187.05h21.46c8.685 0 14.561 2.805 14.561 11.284 0 4.59-2.108 7.522-6.195 9.5 5.62 1.593 8.366 5.865 8.366 11.538 0 9.244-7.855 13.197-16.094 13.197H48.242v-45.52zm85.514 34.043c-3.896 7.331-11.815 12.24-20.693 12.24-12.964 0-23.566-10.583-23.566-23.589 0-12.941 10.602-23.524 23.566-23.524 8.814 0 16.542 4.91 20.63 11.985-4.024 2.04-4.344 2.231-8.814 4.463-2.363-4.08-6.706-6.695-11.816-6.695-7.664 0-13.795 6.121-13.795 13.771 0 7.715 6.131 13.771 13.795 13.771 5.11 0 10.219-2.55 12.071-6.885h-1.022c-2.044 0-6.706.063-9.26.063-1.214 0-1.789 0-1.789-.063v-8.416c6.451 0 15.457.064 23.312.064 0 1.34-.256 9.755-2.619 12.815M8.567 253.371c-4.718 0-8.54-3.815-8.54-8.524 0-4.663 3.822-8.526 8.54-8.526 3.232 0 5.968 1.79 7.408 4.357-1.44.754-1.557.824-3.162 1.601-.826-1.436-2.43-2.425-4.246-2.425-2.76 0-5.001 2.26-5.001 4.993a5 5 0 0 0 5 4.992c1.888 0 3.54-1.013 4.389-2.614 1.604.824 1.651.918 3.161 1.601-1.439 2.708-4.223 4.545-7.55 4.545m12.196-8.524c0 2.801 2.336 5.133 5.143 5.133 2.808 0 5.096-2.332 5.096-5.133 0-2.803-2.288-5.158-5.096-5.158-2.807 0-5.143 2.355-5.143 5.158m5.143 8.69c-4.812 0-8.705-3.887-8.705-8.69a8.697 8.697 0 0 1 8.705-8.714c4.79 0 8.73 3.886 8.73 8.714 0 4.803-3.94 8.69-8.73 8.69m11.252-17.027h4.812l3.893 7.417 3.821-7.417h4.885v16.814h-3.469v-11.892h-.047l-3.75 7.653h-2.855l-3.728-7.536h-.047v11.775h-3.515zm24.698 7.913h2.878c1.699 0 3.255-.377 3.255-2.52s-1.556-2.52-3.255-2.52h-2.878v5.04zm-3.704-7.913h7.597c4.222 0 5.827 2.66 5.827 5.393 0 2.731-1.605 5.392-5.827 5.392h-3.893v6.029h-3.704V236.51zm30.03 10.456c0 4.544-2.69 6.758-7.194 6.758-4.554 0-7.173-2.166-7.173-6.758V236.51h3.704v10.456c0 1.837.472 3.65 3.469 3.65 2.641 0 3.49-1.13 3.49-3.65V236.51h3.704v10.456zm7.454-7.348H90.28v-3.085h14.367v3.108h-5.309v13.683h-3.703zm14.295 6.994v3.58h9.507v3.109h-13.093v-16.862h12.291v3.108h-8.705v3.792h7.69v3.273zm15.851-7.229v5.063h2.879c1.769 0 3.232-.4 3.232-2.543 0-2.19-1.463-2.52-3.232-2.52h-2.879zm5.875 7.724l4.718 6.24h-4.53l-4.246-6.052h-1.817v6.053h-3.727V236.51h7.596c4.247 0 5.875 2.66 5.875 5.393 0 2.284-1.203 4.592-4.01 5.204h.14z"/><path fill="#53B5AD" d="M32.345 188.356h8.614V170.48h-8.614z"/><path fill="#53B5AD" d="M22.206 163.836l6.09-6.08 12.663 12.64-6.09 6.08z"/><path d="M72.069 24.97c0 3.844-3.123 6.96-6.974 6.96-3.85 0-6.972-3.116-6.972-6.96 0-3.843 3.122-6.96 6.972-6.96 3.851 0 6.974 3.117 6.974 6.96m45.666-.4c0 3.845-3.122 6.96-6.973 6.96-3.85 0-6.973-3.115-6.973-6.96 0-3.842 3.122-6.958 6.973-6.958 3.85 0 6.973 3.116 6.973 6.959M72.24 72.13c0 3.844-3.122 6.96-6.973 6.96-3.85 0-6.973-3.116-6.973-6.96 0-3.842 3.122-6.959 6.973-6.959 3.85 0 6.973 3.117 6.973 6.959m45.667-.399c0 3.844-3.122 6.96-6.973 6.96-3.85 0-6.973-3.116-6.973-6.96 0-3.843 3.122-6.959 6.973-6.959 3.85 0 6.973 3.116 6.973 6.959m-64.468 52.56c0 3.844-3.122 6.96-6.973 6.96-3.85 0-6.972-3.116-6.972-6.96 0-3.842 3.121-6.96 6.972-6.96 3.851 0 6.973 3.118 6.973 6.96m64.213.299c0 3.844-3.122 6.96-6.973 6.96-3.85 0-6.972-3.116-6.972-6.96 0-3.843 3.122-6.96 6.972-6.96 3.85 0 6.973 3.117 6.973 6.96m-91.489 30.711a5.48 5.48 0 0 1-5.486 5.475 5.48 5.48 0 0 1-5.485-5.475 5.48 5.48 0 0 1 5.485-5.475 5.48 5.48 0 0 1 5.486 5.475" fill="#233540"/></g></svg>