<svg width="300" height="260" viewBox="0 0 300 260" xmlns="http://www.w3.org/2000/svg"><title>notebook_icon</title><g fill="#FFF" fill-rule="evenodd"><path d="M80.378 249.964h139.244L289.244 130 219.622 10.036H80.378L10.756 130l69.622 119.964zm142.08 9.774H77.542a4.917 4.917 0 0 1-4.254-2.443L.829 132.444a4.865 4.865 0 0 1 0-4.887L73.288 2.706A4.917 4.917 0 0 1 77.542.262h144.916a4.92 4.92 0 0 1 4.255 2.444l72.458 124.85a4.865 4.865 0 0 1 0 4.888l-72.458 124.85a4.917 4.917 0 0 1-4.255 2.444z"/><path d="M193.818 146.658c-14.99.03-29.981.01-44.971.01-14.824-.006-29.648.012-44.472-.015-5.755-.012-7.034-1.221-7.055-7.02-.06-16.901-.07-33.801-.008-50.703.02-5.571 1.503-6.998 7.242-6.988 29.644.052 59.287.152 88.93.286 5.937.027 7.006 1.149 7.02 7.025.04 16.901.057 33.803.028 50.703-.01 5.674-1.057 6.69-6.714 6.702m-35.69 20.564h-16.7c-1.73 0-3.173-1.036-3.63-2.444-.203-.346-.32-.662-.267-.868.032-.121.083-.248.135-.377.178-1.718 1.784-3.069 3.762-3.069h16.7c2.098 0 3.797 1.513 3.797 3.379s-1.7 3.379-3.797 3.379m54.592-12.084c-3.366-.76-3.29-3.135-3.288-5.707.02-21.715.031-43.428-.003-65.141-.013-8.962-2.612-11.534-11.596-11.539-32.157-.02-64.313-.016-96.47-.008-9.537.003-12.165 2.588-12.177 12.063-.027 21.216-.094 42.432.063 63.648.03 4.021-.794 6.725-5.227 7.34-2.793.389-3.636 2.06-3.57 4.882.17 7.28 3.985 11.283 11.49 11.3 19.16.044 38.321.015 57.482.01 18.827-.009 37.654-.007 56.481-.01 1.333 0 2.682.093 3.995-.067 4.858-.59 7.996-4.426 9.04-9.862 1.031-5.365-2.632-6.1-6.22-6.91"/></g></svg>