<svg width="300" height="260" viewBox="0 0 300 260" xmlns="http://www.w3.org/2000/svg"><title>router_icon</title><g fill="#FFF" fill-rule="evenodd"><path d="M80.378 249.963h139.244L289.244 130 219.622 10.036H80.378L10.756 130l69.622 119.963zm142.08 9.775H77.542a4.917 4.917 0 0 1-4.254-2.444L.829 132.444a4.865 4.865 0 0 1 0-4.888L73.288 2.706A4.917 4.917 0 0 1 77.542.261h144.916c1.755 0 3.377.931 4.255 2.443l72.458 124.851a4.865 4.865 0 0 1 0 4.888l-72.458 124.85a4.917 4.917 0 0 1-4.255 2.444z"/><path d="M189.008 77.509c12.248-.11 23.735 7.335 28.536 18.393.769 1.773.126 3.596-1.525 4.323-1.66.732-3.4-.004-4.245-1.782-3.555-7.482-9.32-12.304-17.478-14.087-11.278-2.465-22.777 3.29-27.6 13.723-.447.968-.996 1.791-2.049 2.144-1.28.429-2.43.156-3.347-.818-.945-1.002-1.12-2.193-.569-3.452 1.567-3.584 3.766-6.74 6.56-9.484 4.85-4.766 10.662-7.624 17.392-8.653a19.01 19.01 0 0 1 1.652-.184c.94-.06 1.883-.088 2.673-.123"/><path d="M189.193 91.751c6.476.314 11.304 3.22 14.194 9.113.882 1.801.268 3.647-1.393 4.429-1.678.787-3.43.061-4.318-1.755-1.71-3.497-4.53-5.394-8.44-5.427-3.982-.034-6.855 1.863-8.61 5.418-.736 1.491-1.837 2.166-3.37 2.03-1.201-.105-2.4-.987-2.594-2.218-.128-.82-.062-1.814.298-2.543 2.886-5.832 7.685-8.762 14.233-9.047m3.788 33.53c.001-1.326.007-2.535-.001-3.742-.02-3.017.045-6.044-.1-9.047-.135-2.779-1.8-4.9-3.62-4.976-1.86-.077-3.526 1.933-3.857 4.712-.091.769-.107 1.567-.11 2.352-.01 3.51-.004 7.021-.004 10.701h7.692z"/><path d="M98.66 147.563c-4.19-.01-7.682-3.519-7.677-7.717.004-4.25 3.558-7.743 7.831-7.698 4.24.045 7.677 3.512 7.653 7.72-.025 4.308-3.471 7.706-7.806 7.695m107.334-10.176c-1.347-7.192-6.933-12.165-14.122-12.664H98.067c-1.113.053-2.23.188-3.287.472-7.463 2.007-12.12 8.97-11.227 16.622.834 7.147 6.974 12.882 14.45 13.182 5.324.214 10.661.087 15.993.088 19.015.006 38.03.012 57.044-.004 7.107-.006 14.225.153 21.32-.168 8.618-.387 15.214-9.092 13.635-17.528"/></g></svg>