<svg width="300" height="260" viewBox="0 0 300 260" xmlns="http://www.w3.org/2000/svg"><title>speeg_icon</title><g fill="#57B8BA" fill-rule="evenodd"><path d="M149.852 160.617c17.937 0 35.876.025 53.813-.011 8.434-.018 11.874-3.159 12.225-11.487.873-20.798-6.744-38.042-22.315-51.875-19.38-17.216-48.857-21.177-73.194-9.824-23.62 11.02-38.519 35.25-37.42 60.853.399 9.307 3.6 12.344 13.075 12.35 17.938.011 35.877.003 53.816-.006m-.789 6.871c-18.142-.004-36.283.05-54.424-.023-12.24-.05-18.032-5.587-18.714-17.616-2.61-46.06 38.41-82.22 85.074-74.992 36.875 5.71 63.129 36.452 62.433 73.1-.25 13.23-6.622 19.504-19.946 19.527-18.141.033-36.282.008-54.423.004"/><path d="M176.183 99.49c-1.633-1.165-4.614-.017-5.842 1.125a1514.071 1514.071 0 0 0-32.717 31.355c-3.884 3.836-4.773 8.83-2.388 13.764 2.488 5.15 6.71 8.213 12.804 7.957 5.852-.062 10.067-2.45 12.784-8.856 5.66-13.347 10.863-26.89 16.04-40.432.519-1.356.685-3.94-.68-4.914m-75.052 42.736c0 2.204-1.796 3.992-4.013 3.992-2.216 0-4.012-1.788-4.012-3.992 0-2.205 1.796-3.992 4.012-3.992 2.217 0 4.013 1.787 4.013 3.992m10.989-24.565c0 2.203-1.797 3.99-4.013 3.99s-4.013-1.787-4.013-3.99c0-2.206 1.797-3.993 4.013-3.993s4.013 1.787 4.013 3.992m18.246-17.439c0 2.204-1.797 3.991-4.014 3.991-2.215 0-4.011-1.787-4.011-3.99 0-2.206 1.796-3.993 4.011-3.993 2.217 0 4.014 1.787 4.014 3.992m24.434-5.901c0 2.204-1.797 3.991-4.014 3.991-2.215 0-4.012-1.787-4.012-3.991 0-2.205 1.797-3.993 4.012-3.993 2.217 0 4.014 1.788 4.014 3.993m40.885 23.341c0 2.203-1.797 3.99-4.013 3.99s-4.012-1.787-4.012-3.99c0-2.206 1.796-3.993 4.012-3.993 2.216 0 4.013 1.787 4.013 3.992m7.407 24.566c0 2.204-1.797 3.992-4.014 3.992-2.215 0-4.012-1.788-4.012-3.992 0-2.205 1.797-3.992 4.012-3.992 2.217 0 4.014 1.787 4.014 3.992"/><path d="M179.28 100.219c0 2.203-1.797 3.99-4.014 3.99-2.215 0-4.012-1.787-4.012-3.99 0-2.205 1.797-3.993 4.012-3.993 2.217 0 4.014 1.788 4.014 3.993"/><path d="M80.378 249.964h139.244L289.244 130 219.622 10.036H80.378L10.756 130l69.622 119.964zm142.08 9.774H77.542a4.917 4.917 0 0 1-4.254-2.443L.829 132.444a4.865 4.865 0 0 1 0-4.887L73.288 2.706A4.917 4.917 0 0 1 77.542.262h144.916a4.92 4.92 0 0 1 4.255 2.444l72.458 124.85a4.865 4.865 0 0 1 0 4.888l-72.458 124.85a4.917 4.917 0 0 1-4.255 2.444z"/></g></svg>