<svg width="300" height="260" viewBox="0 0 300 260" xmlns="http://www.w3.org/2000/svg"><title>vierenschutz_icon</title><g fill="#57B8BA" fill-rule="evenodd"><path d="M102.867 107.728c.13 2.05.306 5.57.582 9.083 2.326 29.58 15.588 52.41 41.831 67.321 3.284 1.864 6.052 1.86 9.312-.003 20.105-11.493 33.88-28.035 38.743-50.691 2.565-11.96 3.072-24.382 4.046-36.631.138-1.745-1.944-4.68-3.687-5.393-13.446-5.499-27.032-10.661-40.658-15.704-1.797-.665-4.267-.613-6.086.04-10.72 3.846-21.464 7.677-31.965 12.066-15.548 6.5-12.62 1.82-12.118 19.912zM209.34 96.12s-1.51 27.381-4.737 40.588c-6.934 28.368-24.505 48.57-51.52 60.246-2.107.91-5.452.497-7.648-.523-32.451-15.093-49.612-41.057-53.377-76.017-1.13-10.488-.837-21.123-1.423-31.679-.197-3.562 1.234-5.211 4.48-6.408 17.15-6.324 34.202-12.913 51.365-19.196 2-.734 4.73-.807 6.713-.082 17.347 6.355 34.569 13.046 51.909 19.413 3.378 1.24 4.283 6.486 4.283 6.486l-.045 7.047v.125z"/><path d="M182.645 97.329c-21.472 16.255-41.804 31.648-63.32 47.934-1.833-5.249-4.105-9.592-4.788-14.169-1.358-9.085-2.065-18.29-2.496-27.47-.086-1.82 1.85-4.75 3.572-5.467 10.517-4.376 21.23-8.292 31.914-12.266 1.19-.443 2.775-.744 3.889-.336 10.097 3.694 20.133 7.563 31.23 11.774M125.312 153.8c20.75-15.712 41.174-31.174 62.553-47.36-.525 19.457-3.135 37.184-15.967 51.458-5.412 6.022-12.161 10.91-18.636 15.883-1.394 1.07-4.54 1.005-6.346.23-7.822-3.362-16.862-12.01-21.604-20.212"/><path d="M80.378 249.963h139.244L289.244 130 219.622 10.036H80.378L10.756 130l69.622 119.963zm142.08 9.775H77.542a4.917 4.917 0 0 1-4.254-2.444L.829 132.444a4.865 4.865 0 0 1 0-4.888L73.288 2.706A4.917 4.917 0 0 1 77.542.261h144.916c1.755 0 3.377.931 4.255 2.443l72.458 124.851a4.865 4.865 0 0 1 0 4.888l-72.458 124.85a4.917 4.917 0 0 1-4.255 2.444z"/></g></svg>