<svg width="300" height="260" viewBox="0 0 300 260" xmlns="http://www.w3.org/2000/svg"><title>windows_icon</title><g fill="#57B8BA" fill-rule="evenodd"><path d="M134.252 127.229l-38.428.478v-34.56l38.375-7.497zm.014 4.906l-38.428-.479v34.56l38.374 7.498zm66.62 54.86l-61.48-12.101.047-42.753 61.448.79zm0-114.642l-61.48 12.102.047 42.752 61.448-.79z"/><path d="M80.378 249.964h139.244L289.244 130 219.622 10.036H80.378L10.756 130l69.622 119.964zm142.08 9.774H77.542a4.917 4.917 0 0 1-4.254-2.443L.829 132.444a4.865 4.865 0 0 1 0-4.887L73.288 2.706A4.917 4.917 0 0 1 77.542.262h144.916a4.92 4.92 0 0 1 4.255 2.444l72.458 124.85a4.865 4.865 0 0 1 0 4.888l-72.458 124.85a4.917 4.917 0 0 1-4.255 2.444z"/></g></svg>