<?xml version="1.0" encoding="UTF-8"?>
<svg width="300px" height="260px" viewBox="0 0 300 260" version="1.1" xmlns="http://www.w3.org/2000/svg" xmlns:xlink="http://www.w3.org/1999/xlink">
    <!-- Generator: Sketch 42 (36781) - http://www.bohemiancoding.com/sketch -->
    <title>windows_icon</title>
    <desc>Created with Sketch.</desc>
    <defs></defs>
    <g id="Page-1" stroke="none" stroke-width="1" fill="none" fill-rule="evenodd">
        <g id="windows_icon" fill="#1A1918">
            <g id="Windows_Icon">
                <polygon id="Fill-1" points="134.251965 127.228817 95.8237991 127.707113 95.8237991 93.1466617 134.198581 85.6496692"></polygon>
                <polygon id="Fill-2" points="134.265721 132.135291 95.8375546 131.656343 95.8375546 166.216794 134.212336 173.713787"></polygon>
                <polygon id="Fill-3" points="200.886354 186.995258 139.406004 174.893855 139.453493 132.141449 200.900764 132.930897"></polygon>
                <polygon id="Fill-4" points="200.886354 72.3529499 139.406004 84.455005 139.453493 127.207411 200.900764 126.417637"></polygon>
                <path d="M80.3781878,249.963707 L219.622074,249.963707 L289.24369,130.000424 L219.622074,10.0364887 L80.3781878,10.0364887 L10.7562445,130.000424 L80.3781878,249.963707 Z M222.458319,259.738143 L77.5419432,259.738143 C75.7868122,259.738143 74.1649782,258.806639 73.2875764,257.294534 L0.829388646,132.444033 C-0.0483406114,130.931927 -0.0483406114,129.06892 0.829388646,127.556815 L73.2875764,2.70566165 C74.1649782,1.19355639 75.7868122,0.262052632 77.5419432,0.262052632 L222.458319,0.262052632 C224.21345,0.262052632 225.834956,1.19355639 226.712686,2.70566165 L299.170546,127.556815 C300.048275,129.06892 300.048275,130.931927 299.170546,132.444033 L226.712686,257.294534 C225.834956,258.806639 224.21345,259.738143 222.458319,259.738143 L222.458319,259.738143 Z" id="Fill-5"></path>
            </g>
        </g>
    </g>
</svg>