<svg width="300" height="260" viewBox="0 0 300 260" xmlns="http://www.w3.org/2000/svg"><title>zahnrad_icon</title><g fill="#57B8BA" fill-rule="evenodd"><path d="M149.991 161.772c-17.572.045-31.955-14.266-31.994-31.834-.039-17.342 14.344-31.682 31.875-31.779 17.562-.097 32.004 14.206 32.069 31.762.064 17.484-14.302 31.806-31.95 31.851m63.622-38.783c-1.612-4.112-4.058-5.774-8.516-5.784-1.617-.002-3.235.034-4.85-.016-1.904-.06-3.355-.932-4.173-2.669-.837-1.776-1.66-3.563-2.377-5.388-.84-2.137-.575-4.104 1.171-5.772a103.875 103.875 0 0 0 3.694-3.712c3.14-3.316 3.235-7.768.135-11.079a139.975 139.975 0 0 0-6.939-6.924c-3.435-3.189-7.588-3.21-11.116-.124-1.343 1.175-2.576 2.48-3.824 3.76-1.556 1.597-3.59 2.095-5.663 1.273-1.708-.676-3.4-1.392-5.091-2.11-2.224-.945-3.282-2.679-3.33-5.04-.035-1.696.017-3.395-.017-5.092-.095-4.712-3.167-7.777-7.902-7.841a351.351 351.351 0 0 0-9.7.002c-4.62.066-7.838 3.254-7.96 7.855-.046 1.697-.04 3.396-.005 5.093.05 2.494-1.147 4.14-3.4 5.09-1.61.68-3.222 1.353-4.848 1.993-2.137.84-4.04.457-5.685-1.159-1.469-1.443-2.89-2.942-4.435-4.3-2.69-2.36-7.136-2.423-9.78-.042-2.59 2.332-5.117 4.75-7.486 7.301-3.588 3.865-3.38 8.097.375 11.838 1.079 1.075 2.163 2.144 3.234 3.225 1.575 1.59 2.007 3.452 1.199 5.535a103.63 103.63 0 0 1-2.172 5.188c-.935 2.069-2.55 3.143-4.874 3.124-1.93-.017-3.867-.07-5.791.046-4.14.248-7.222 3.388-7.32 7.493-.083 3.439-.08 6.882-.005 10.32.097 4.402 3.19 7.44 7.614 7.567 1.795.051 3.593-.01 5.389.025 2.134.043 3.874.882 4.808 2.852.917 1.935 1.717 3.93 2.47 5.934.528 1.41.44 2.89-.536 4.07-1.218 1.473-2.53 2.89-3.95 4.17-3.892 3.508-3.718 8.565-.809 11.564 2.462 2.537 4.888 5.127 7.539 7.459 3.3 2.903 7.767 2.597 10.932-.484 1.25-1.217 2.513-2.426 3.722-3.683 1.607-1.671 3.52-1.882 5.56-1.12 1.843.69 3.63 1.531 5.424 2.346 1.914.87 2.803 2.413 2.815 4.478.011 1.742-.012 3.485.008 5.227.027 2.443.828 4.612 2.777 6.133 1.067.832 2.412 1.312 3.632 1.95h12.936c1.424-.879 2.964-1.619 4.242-2.675 1.402-1.157 1.915-2.88 1.96-4.685.045-1.829.016-3.66.035-5.491.025-2.343.945-4.147 3.193-5.117 1.727-.744 3.438-1.532 5.197-2.191 2.065-.773 3.967-.437 5.572 1.153 1.271 1.26 2.513 2.55 3.817 3.778 3.127 2.94 7.19 3.343 10.459.56 3.048-2.594 5.865-5.508 8.48-8.54 2.299-2.665 2.007-6.695-.32-9.368-1.261-1.446-2.678-2.759-4.02-4.136-2.004-2.056-2.346-3.959-1.195-6.579.664-1.51 1.312-3.028 1.985-4.536.948-2.123 2.694-3.018 4.936-3.068 1.66-.037 3.322.012 4.982-.014 3.898-.061 6.393-1.844 7.736-5.488.09-.245.228-.472.343-.707v-12.87c-.095-.199-.202-.393-.282-.598"/><path d="M80.378 249.964h139.244L289.244 130 219.622 10.036H80.378L10.756 130l69.622 119.964zm142.08 9.774H77.542a4.917 4.917 0 0 1-4.254-2.443L.829 132.444a4.865 4.865 0 0 1 0-4.887L73.288 2.706A4.917 4.917 0 0 1 77.542.262h144.916a4.92 4.92 0 0 1 4.255 2.444l72.458 124.85a4.865 4.865 0 0 1 0 4.888l-72.458 124.85a4.917 4.917 0 0 1-4.255 2.444z"/></g></svg>